HIERARCHY
ROOT Hips
{
     OFFSET 1.88212 96.90440 -13.34250
     CHANNELS 6 Xposition Yposition Zposition Zrotation Xrotation Yrotation
     JOINT Spine
     {
          OFFSET 0.00000 11.89050 0.00000
          CHANNELS 3 Zrotation Xrotation Yrotation
          JOINT Spine1
          {
               OFFSET -0.00000 25.65740 0.12766
               CHANNELS 3 Zrotation Xrotation Yrotation
               JOINT HEad
               {
                    OFFSET 0.00000 8.73416 0.01134
                    CHANNELS 3 Zrotation Xrotation Yrotation
                    End Site
                    {
                         OFFSET -0.29000 12.77420 2.51395
                    }
               }
               JOINT LeftShoulder1
               {
                    OFFSET 8.99000 -0.36225 -0.22000
                    CHANNELS 3 Zrotation Xrotation Yrotation
                    JOINT LeftArm
                    {
                         OFFSET 10.28270 -0.00338 0.32212
                         CHANNELS 3 Zrotation Xrotation Yrotation
                         JOINT LeftForeArm
                         {
                              OFFSET 32.76690 0.09914 -1.42434
                              CHANNELS 3 Zrotation Xrotation Yrotation
                              JOINT LeftHand
                              {
                                   OFFSET 27.56430 0.08536 1.02216
                                   CHANNELS 3 Zrotation Xrotation Yrotation
                                   End Site
                                   {
                                        OFFSET 16.74430 -0.60000 1.50291
                                   }
                              }
                         }
                    }
               }
               JOINT RightShoulder
               {
                    OFFSET -8.99000 -0.36225 -0.22000
                    CHANNELS 3 Zrotation Xrotation Yrotation
                    JOINT RightArm
                    {
                         OFFSET -10.28270 -0.00338 0.32212
                         CHANNELS 3 Zrotation Xrotation Yrotation
                         JOINT RightForeArm
                         {
                              OFFSET -32.89710 0.09914 -1.42434
                              CHANNELS 3 Zrotation Xrotation Yrotation
                              JOINT RightHand
                              {
                                   OFFSET -27.49210 0.08536 1.02216
                                   CHANNELS 3 Zrotation Xrotation Yrotation
                                   End Site
                                   {
                                        OFFSET -16.63120 -0.60000 1.50291
                                   }
                              }
                         }
                    }
               }
          }
     }
     JOINT LeftUpLeg
     {
          OFFSET 8.94580 -8.66707 0.10165
          CHANNELS 3 Zrotation Xrotation Yrotation
          JOINT LeftLeg
          {
               OFFSET 0.00000 -44.42270 1.37270
               CHANNELS 3 Zrotation Xrotation Yrotation
               JOINT LeftFoot
               {
                    OFFSET -0.25355 -42.09240 -1.46059
                    CHANNELS 3 Zrotation Xrotation Yrotation
                    JOINT LeftToes
                    {
                         OFFSET -0.04000 -4.41509 8.49910
                         CHANNELS 3 Zrotation Xrotation Yrotation
                         End Site
                         {
                              OFFSET 0.08000 -0.04745 9.77979
                         }
                    }
               }
          }
     }
     JOINT RightUpLeg
     {
          OFFSET -8.94580 -8.66707 0.10165
          CHANNELS 3 Zrotation Xrotation Yrotation
          JOINT RightLeg
          {
               OFFSET 0.00000 -44.42270 1.37270
               CHANNELS 3 Zrotation Xrotation Yrotation
               JOINT RightFoot
               {
                    OFFSET 0.25355 -42.09240 -1.46059
                    CHANNELS 3 Zrotation Xrotation Yrotation
                    JOINT RightToes
                    {
                         OFFSET 0.04000 -4.41509 8.49910
                         CHANNELS 3 Zrotation Xrotation Yrotation
                         End Site
                         {
                              OFFSET -0.08000 -0.13745 9.77979
                         }
                    }
               }
          }
     }
}
MOTION
Frames: 6
Frame Time: 0.01667
99.56786 97.27467 0.32677 -9.97196 14.18096 -177.94482 -16.66323 25.43237 -4.98764 0.01030 -0.01037 -0.00196 -1.63415 -1.64485 25.61422 -2.00220 12.02364 1.53367 -163.33414 -30.23229 -143.39719 -112.16995 73.27997 -12.85284 26.09919 7.50551 -10.03453 6.24128 12.58523 -1.66445 74.18539 5.14363 88.31860 -8.71508 23.85271 104.21003 25.72426 6.61793 10.38746 -0.79687 8.51348 -20.76315 -15.44472 0.34665 94.07053 -5.92580 0.07136 -0.01633 12.63226 52.08633 3.43228 -22.99339 4.68797 7.80819 28.89534 2.94291 -27.97307 -26.47470 0.00019 0.00158 5.02422 -19.21516 18.81008 
100.07576 97.81062 0.95182 -17.99400 17.88282 -177.44717 -25.87054 29.18571 -2.09370 0.00567 -0.00408 -0.00083 -6.43262 -2.09450 22.72998 -2.22612 10.91450 2.25461 -156.00041 -36.17322 -139.67657 -77.15932 71.44048 -41.92804 24.01632 6.33811 -14.22840 5.53310 11.58116 -0.74059 70.59970 6.99294 88.99073 -8.83192 22.28524 103.93192 11.89197 9.35750 0.49209 -7.07769 7.62645 -16.19941 -20.93600 7.91334 95.01598 -8.86100 0.06911 -0.03225 4.85514 29.13247 -11.71398 -31.12217 7.26669 11.43894 28.69878 2.84521 -28.60460 -27.17461 -0.00101 0.00147 6.03933 -19.03575 19.00059 
100.63634 98.22565 1.61328 -24.96227 21.04979 -176.63055 -33.79500 31.50697 0.89349 0.00603 0.00226 0.00081 -11.09047 -1.69681 20.01592 -2.42058 10.41279 3.11331 -145.83366 -42.72681 -133.50131 -49.93471 63.31910 -61.18127 24.12111 13.81268 -3.18249 4.85234 11.13523 0.20610 67.20399 12.10255 89.79988 -12.39681 20.23284 102.89458 32.18643 2.61926 20.37473 -11.70553 5.35787 -10.87661 -27.48290 16.79435 92.20491 -13.71686 0.02229 -0.20077 4.19377 32.77160 -8.41647 -38.36803 9.00898 14.99590 28.70964 2.75441 -29.26403 -27.90369 -0.00209 0.00092 7.05215 -18.84213 19.14156 
101.21301 98.60739 2.24310 -30.97214 23.74693 -175.67992 -40.23351 32.72398 3.68319 0.00204 0.00885 0.00331 -15.61324 -0.62926 17.60530 -2.55348 10.37379 4.03464 -132.31438 -48.75765 -123.90906 -33.64694 51.53685 -68.23296 18.97564 2.51226 -24.04774 4.10789 11.09533 1.30449 64.98342 15.12998 90.29848 -14.07139 18.78804 101.40118 21.42800 -0.95727 16.04364 -14.54521 1.88237 -4.94836 -33.43985 26.96895 86.77740 -19.65403 -0.15459 -0.25373 3.76895 24.48160 -4.06636 -44.69118 10.13121 18.38032 28.86450 2.67737 -29.92275 -28.66773 -0.00229 0.00032 8.03000 -18.68875 19.20801 
101.80396 99.00650 2.81465 -36.10823 26.07334 -174.72099 -45.11035 33.15109 6.09344 -0.00003 0.01219 0.00334 -20.00535 0.94304 15.59657 -2.68241 10.69726 4.84792 -114.93476 -52.98124 -110.20695 -22.52731 37.55810 -68.93737 18.12507 14.65656 -6.24777 3.46204 11.38119 2.24695 63.40191 17.49135 90.42904 -15.09215 18.38488 100.27095 27.96581 3.39048 17.14660 -15.59900 -2.51170 1.53561 -37.25855 37.85760 79.27730 -29.43746 -0.49528 -0.35977 -2.89921 12.72645 -6.29918 -50.06274 10.84692 21.53141 29.08068 2.61927 -30.56454 -29.44803 -0.00151 -0.00008 8.92743 -18.64479 19.18200 
102.44205 99.38775 3.33605 -40.45599 28.12873 -173.81847 -48.49744 33.05843 8.06265 -0.00349 0.01571 0.00354 -24.24658 2.86858 14.03440 -3.07135 11.29620 5.57079 -94.50766 -54.08308 -93.07519 -13.98980 22.02140 -66.35229 13.32316 7.38830 -23.81728 2.62653 11.91720 3.12135 62.47045 19.39919 90.33403 -10.64611 19.77139 98.45935 20.86224 5.72695 12.04647 -14.87854 -7.50571 8.57975 -36.71990 48.21365 70.02369 -45.72804 -0.97541 -0.37653 10.47690 12.75706 3.96276 -54.48078 11.33280 24.41507 29.28750 2.58372 -31.19085 -30.21935 -0.00018 -0.00013 9.67900 -18.68916 19.07433 
